<svg xmlns="http://www.w3.org/2000/svg" width="22" height="22" viewBox="0 0 22 22" fill="none">
  <path d="M11.001 0C8.01358 0 7.63866 0.0130628 6.46532 0.0664592C5.29426 0.120085 4.49492 0.305482 3.7955 0.577506C3.07201 0.858467 2.4583 1.2343 1.84687 1.84596C1.23499 2.45738 0.859155 3.07109 0.577277 3.79435C0.304565 4.49401 0.118939 5.29358 0.0662298 6.46417C0.01375 7.63752 0 8.01267 0 11.0001C0 13.9876 0.013292 14.3613 0.0664592 15.5347C0.120314 16.7057 0.305712 17.5051 0.577506 18.2045C0.858697 18.928 1.23453 19.5417 1.84619 20.1531C2.45738 20.765 3.07109 21.1418 3.79412 21.4227C4.49401 21.6947 5.29358 21.8801 6.4644 21.9338C7.63775 21.9872 8.01244 22.0002 10.9997 22.0002C13.9873 22.0002 14.3611 21.9872 15.5345 21.9338C16.7055 21.8801 17.5058 21.6947 18.2056 21.4227C18.9289 21.1418 19.5417 20.765 20.1529 20.1531C20.7648 19.5417 21.1406 18.928 21.4225 18.2047C21.6929 17.5051 21.8785 16.7055 21.9335 15.5349C21.9862 14.3616 22 13.9876 22 11.0001C22 8.01267 21.9862 7.63775 21.9335 6.4644C21.8785 5.29335 21.6929 4.494 21.4225 3.79458C21.1406 3.07109 20.7648 2.45738 20.1529 1.84596C19.541 1.23408 18.9291 0.858238 18.205 0.577506C17.5037 0.305482 16.7039 0.120085 15.5328 0.0664592C14.3595 0.0130628 13.986 0 10.9976 0H11.001ZM10.0142 1.98231C10.3071 1.98185 10.6339 1.98231 11.001 1.98231C13.9381 1.98231 14.2862 1.99285 15.446 2.04556C16.5185 2.09461 17.1006 2.27382 17.4883 2.42438C18.0017 2.62376 18.3677 2.86209 18.7524 3.2471C19.1374 3.6321 19.3758 3.99877 19.5756 4.51211C19.7262 4.89941 19.9056 5.48149 19.9544 6.55401C20.0071 7.7136 20.0186 8.06194 20.0186 10.9976C20.0186 13.9332 20.0071 14.2816 19.9544 15.4412C19.9054 16.5137 19.7262 17.0958 19.5756 17.4831C19.3762 17.9964 19.1374 18.3619 18.7524 18.7467C18.3674 19.1317 18.0019 19.3701 17.4883 19.5694C17.1011 19.7207 16.5185 19.8994 15.446 19.9485C14.2864 20.0012 13.9381 20.0126 11.001 20.0126C8.06377 20.0126 7.71566 20.0012 6.55607 19.9485C5.48356 19.899 4.90147 19.7198 4.51348 19.5692C4.00015 19.3698 3.63348 19.1315 3.24847 18.7465C2.86347 18.3615 2.62513 17.9957 2.4253 17.4822C2.27473 17.0949 2.09529 16.5128 2.04648 15.4403C1.99377 14.2807 1.98323 13.9323 1.98323 10.9948C1.98323 8.05735 1.99377 7.71085 2.04648 6.55126C2.09552 5.47874 2.27473 4.89666 2.4253 4.5089C2.62467 3.99556 2.86347 3.62889 3.24847 3.24389C3.63348 2.85888 4.00015 2.62055 4.51348 2.42071C4.90124 2.26946 5.48356 2.09071 6.55607 2.04144C7.57083 1.9956 7.96408 1.98185 10.0142 1.97956V1.98231ZM16.8728 3.80879C16.144 3.80879 15.5528 4.39936 15.5528 5.12834C15.5528 5.8571 16.144 6.44836 16.8728 6.44836C17.6016 6.44836 18.1928 5.8571 18.1928 5.12834C18.1928 4.39959 17.6016 3.80833 16.8728 3.80833V3.80879ZM11.001 5.3511C7.88135 5.3511 5.35201 7.88044 5.35201 11.0001C5.35201 14.1198 7.88135 16.648 11.001 16.648C14.1207 16.648 16.6491 14.1198 16.6491 11.0001C16.6491 7.88044 14.1205 5.3511 11.0008 5.3511H11.001ZM11.001 7.33341C13.026 7.33341 14.6677 8.97495 14.6677 11.0001C14.6677 13.0251 13.026 14.6668 11.001 14.6668C8.97586 14.6668 7.33433 13.0251 7.33433 11.0001C7.33433 8.97495 8.97586 7.33341 11.001 7.33341Z" fill="white" fill-opacity="0.4"/>
</svg>