<svg xmlns="http://www.w3.org/2000/svg" width="22" height="22" viewBox="0 0 22 22" fill="none">
  <path d="M6.91077 20.625C15.2125 20.625 19.7551 13.7459 19.7551 7.79054C19.7551 7.59701 19.7551 7.40348 19.7463 7.20995C20.6266 6.57659 21.3926 5.77608 22 4.87002C21.1901 5.23068 20.3185 5.4682 19.403 5.58255C20.3361 5.02836 21.0492 4.13989 21.3926 3.08428C20.521 3.60328 19.5526 3.97275 18.5226 4.17507C17.6951 3.2954 16.5242 2.75 15.2301 2.75C12.7387 2.75 10.7139 4.77325 10.7139 7.26273C10.7139 7.6146 10.7579 7.95768 10.8283 8.29195C7.07803 8.10722 3.7503 6.30389 1.52301 3.57689C1.13565 4.24545 0.915566 5.01956 0.915566 5.84646C0.915566 7.41228 1.71669 8.79337 2.92277 9.60267C2.18327 9.57628 1.4878 9.37395 0.880352 9.03968C0.880352 9.05727 0.880352 9.07486 0.880352 9.10125C0.880352 11.2828 2.43858 13.1126 4.4986 13.526C4.12005 13.6316 3.72389 13.6844 3.31012 13.6844C3.01961 13.6844 2.7379 13.658 2.46499 13.6052C3.03721 15.3997 4.70988 16.7016 6.68187 16.7368C5.13245 17.9508 3.18688 18.6721 1.07403 18.6721C0.713086 18.6721 0.352141 18.6545 0 18.6105C1.9896 19.8773 4.36655 20.625 6.91077 20.625Z" fill="white" fill-opacity="0.4"/>
</svg>